{
	"patcher" : 	{
		"fileversion" : 1,
		"appversion" : 		{
			"major" : 7,
			"minor" : 0,
			"revision" : 0,
			"architecture" : "x86",
			"modernui" : 1
		}
,
		"rect" : [ 38.0, 78.0, 92.0, 187.0 ],
		"editing_bgcolor" : [ 0.862745, 0.870588, 0.878431, 1.0 ],
		"bglocked" : 0,
		"openinpresentation" : 1,
		"default_fontsize" : 12.0,
		"default_fontface" : 0,
		"default_fontname" : "Arial",
		"gridonopen" : 1,
		"gridsize" : [ 15.0, 15.0 ],
		"gridsnaponopen" : 1,
		"objectsnaponopen" : 1,
		"statusbarvisible" : 2,
		"toolbarvisible" : 1,
		"lefttoolbarpinned" : 0,
		"toptoolbarpinned" : 0,
		"righttoolbarpinned" : 0,
		"bottomtoolbarpinned" : 0,
		"toolbars_unpinned_last_save" : 0,
		"tallnewobj" : 0,
		"boxanimatetime" : 200,
		"enablehscroll" : 1,
		"enablevscroll" : 1,
		"devicewidth" : 0.0,
		"description" : "",
		"digest" : "",
		"tags" : "",
		"style" : "",
		"subpatcher_template" : "",
		"boxes" : [ 			{
				"box" : 				{
					"id" : "obj-2",
					"maxclass" : "newobj",
					"numinlets" : 1,
					"numoutlets" : 2,
					"outlettype" : [ "", "" ],
					"patching_rect" : [ 450.0, 111.0, 69.0, 22.0 ],
					"save" : [ "#N", "thispatcher", ";", "#Q", "end", ";" ],
					"style" : "",
					"text" : "thispatcher"
				}

			}
, 			{
				"box" : 				{
					"comment" : "",
					"id" : "obj-1",
					"maxclass" : "inlet",
					"numinlets" : 0,
					"numoutlets" : 1,
					"outlettype" : [ "" ],
					"patching_rect" : [ 423.0, 55.0, 30.0, 30.0 ],
					"style" : ""
				}

			}
, 			{
				"box" : 				{
					"id" : "obj-557",
					"maxclass" : "newobj",
					"numinlets" : 0,
					"numoutlets" : 1,
					"outlettype" : [ "" ],
					"patching_rect" : [ 217.814575, 159.192993, 64.0, 22.0 ],
					"style" : "",
					"text" : "r attention"
				}

			}
, 			{
				"box" : 				{
					"id" : "obj-558",
					"maxclass" : "newobj",
					"numinlets" : 0,
					"numoutlets" : 1,
					"outlettype" : [ "" ],
					"patching_rect" : [ 156.814575, 159.192993, 73.0, 22.0 ],
					"style" : "",
					"text" : "r meditation"
				}

			}
, 			{
				"box" : 				{
					"id" : "obj-556",
					"maxclass" : "newobj",
					"numinlets" : 0,
					"numoutlets" : 1,
					"outlettype" : [ "" ],
					"patching_rect" : [ 324.814575, 129.192993, 65.0, 22.0 ],
					"style" : "",
					"text" : "r gamma2"
				}

			}
, 			{
				"box" : 				{
					"id" : "obj-555",
					"maxclass" : "newobj",
					"numinlets" : 0,
					"numoutlets" : 1,
					"outlettype" : [ "" ],
					"patching_rect" : [ 263.814575, 129.192993, 65.0, 22.0 ],
					"style" : "",
					"text" : "r gamma1"
				}

			}
, 			{
				"box" : 				{
					"id" : "obj-554",
					"maxclass" : "newobj",
					"numinlets" : 0,
					"numoutlets" : 1,
					"outlettype" : [ "" ],
					"patching_rect" : [ 202.814575, 129.192993, 48.0, 22.0 ],
					"style" : "",
					"text" : "r beta2"
				}

			}
, 			{
				"box" : 				{
					"id" : "obj-553",
					"maxclass" : "newobj",
					"numinlets" : 0,
					"numoutlets" : 1,
					"outlettype" : [ "" ],
					"patching_rect" : [ 141.814575, 129.192993, 48.0, 22.0 ],
					"style" : "",
					"text" : "r beta1"
				}

			}
, 			{
				"box" : 				{
					"id" : "obj-552",
					"maxclass" : "newobj",
					"numinlets" : 0,
					"numoutlets" : 1,
					"outlettype" : [ "" ],
					"patching_rect" : [ 255.251709, 61.578979, 54.0, 22.0 ],
					"style" : "",
					"text" : "r alpha2"
				}

			}
, 			{
				"box" : 				{
					"id" : "obj-551",
					"maxclass" : "newobj",
					"numinlets" : 0,
					"numoutlets" : 1,
					"outlettype" : [ "" ],
					"patching_rect" : [ 193.908142, 73.385986, 54.0, 22.0 ],
					"style" : "",
					"text" : "r alpha1"
				}

			}
, 			{
				"box" : 				{
					"id" : "obj-550",
					"maxclass" : "newobj",
					"numinlets" : 0,
					"numoutlets" : 1,
					"outlettype" : [ "" ],
					"patching_rect" : [ 132.564575, 85.192993, 45.0, 22.0 ],
					"style" : "",
					"text" : "r theta"
				}

			}
, 			{
				"box" : 				{
					"id" : "obj-549",
					"maxclass" : "newobj",
					"numinlets" : 0,
					"numoutlets" : 1,
					"outlettype" : [ "" ],
					"patching_rect" : [ 71.221008, 97.0, 44.0, 22.0 ],
					"style" : "",
					"text" : "r delta"
				}

			}
, 			{
				"box" : 				{
					"id" : "obj-545",
					"maxclass" : "newobj",
					"numinlets" : 10,
					"numoutlets" : 1,
					"outlettype" : [ "" ],
					"patching_rect" : [ 147.0, 214.0, 163.0, 22.0 ],
					"style" : "",
					"text" : "pak 0. 0. 0. 0. 0. 0. 0. 0. 0. 0."
				}

			}
, 			{
				"box" : 				{
					"bgcolor" : [ 0.0, 0.0, 0.0, 1.0 ],
					"id" : "obj-544",
					"maxclass" : "multislider",
					"numinlets" : 1,
					"numoutlets" : 2,
					"outlettype" : [ "", "" ],
					"parameter_enable" : 1,
					"patching_rect" : [ 155.814575, 261.010254, 256.403931, 186.0 ],
					"presentation" : 1,
					"presentation_rect" : [ 5.358887, 6.306396, 82.0, 175.834961 ],
					"saved_attribute_attributes" : 					{
						"valueof" : 						{
							"parameter_longname" : "multislider",
							"parameter_shortname" : "multislider",
							"parameter_type" : 3,
							"parameter_invisible" : 1
						}

					}
,
					"setminmax" : [ 0.0, 1.0 ],
					"setstyle" : 3,
					"size" : 10,
					"slidercolor" : [ 1.0, 1.0, 1.0, 1.0 ],
					"spacing" : 2,
					"style" : "",
					"varname" : "multislider"
				}

			}
 ],
		"lines" : [ 			{
				"patchline" : 				{
					"destination" : [ "obj-2", 0 ],
					"disabled" : 0,
					"hidden" : 0,
					"source" : [ "obj-1", 0 ]
				}

			}
, 			{
				"patchline" : 				{
					"destination" : [ "obj-544", 0 ],
					"disabled" : 0,
					"hidden" : 0,
					"source" : [ "obj-545", 0 ]
				}

			}
, 			{
				"patchline" : 				{
					"destination" : [ "obj-545", 0 ],
					"disabled" : 0,
					"hidden" : 0,
					"source" : [ "obj-549", 0 ]
				}

			}
, 			{
				"patchline" : 				{
					"destination" : [ "obj-545", 1 ],
					"disabled" : 0,
					"hidden" : 0,
					"source" : [ "obj-550", 0 ]
				}

			}
, 			{
				"patchline" : 				{
					"destination" : [ "obj-545", 2 ],
					"disabled" : 0,
					"hidden" : 0,
					"source" : [ "obj-551", 0 ]
				}

			}
, 			{
				"patchline" : 				{
					"destination" : [ "obj-545", 3 ],
					"disabled" : 0,
					"hidden" : 0,
					"source" : [ "obj-552", 0 ]
				}

			}
, 			{
				"patchline" : 				{
					"destination" : [ "obj-545", 4 ],
					"disabled" : 0,
					"hidden" : 0,
					"source" : [ "obj-553", 0 ]
				}

			}
, 			{
				"patchline" : 				{
					"destination" : [ "obj-545", 5 ],
					"disabled" : 0,
					"hidden" : 0,
					"source" : [ "obj-554", 0 ]
				}

			}
, 			{
				"patchline" : 				{
					"destination" : [ "obj-545", 6 ],
					"disabled" : 0,
					"hidden" : 0,
					"source" : [ "obj-555", 0 ]
				}

			}
, 			{
				"patchline" : 				{
					"destination" : [ "obj-545", 7 ],
					"disabled" : 0,
					"hidden" : 0,
					"source" : [ "obj-556", 0 ]
				}

			}
, 			{
				"patchline" : 				{
					"destination" : [ "obj-545", 9 ],
					"disabled" : 0,
					"hidden" : 0,
					"source" : [ "obj-557", 0 ]
				}

			}
, 			{
				"patchline" : 				{
					"destination" : [ "obj-545", 8 ],
					"disabled" : 0,
					"hidden" : 0,
					"source" : [ "obj-558", 0 ]
				}

			}
 ],
		"parameters" : 		{
			"obj-544" : [ "multislider", "multislider", 0 ]
		}
,
		"dependency_cache" : [  ],
		"embedsnapshot" : 0
	}

}
